<mxfile host="app.diagrams.net" agent="Mozilla/5.0 (Windows NT 10.0; Win64; x64; rv:133.0) Gecko/20100101 Firefox/133.0" version="25.0.1">
  <diagram name="Page-1" id="1oAfq___Pv5-RbnvMRSS">
    <mxGraphModel dx="1315" dy="1180" grid="1" gridSize="10" guides="1" tooltips="1" connect="1" arrows="1" fold="1" page="1" pageScale="1" pageWidth="850" pageHeight="1100" math="0" shadow="0">
      <root>
        <mxCell id="0" />
        <mxCell id="1" parent="0" />
        <mxCell id="LzoUuZFargR1hE_XarP3-33" value="" style="edgeStyle=orthogonalEdgeStyle;rounded=0;orthogonalLoop=1;jettySize=auto;html=1;" edge="1" parent="1" source="LzoUuZFargR1hE_XarP3-34" target="LzoUuZFargR1hE_XarP3-36">
          <mxGeometry relative="1" as="geometry" />
        </mxCell>
        <mxCell id="LzoUuZFargR1hE_XarP3-34" value="start" style="ellipse;whiteSpace=wrap;html=1;" vertex="1" parent="1">
          <mxGeometry x="1150" y="30" width="120" height="80" as="geometry" />
        </mxCell>
        <mxCell id="LzoUuZFargR1hE_XarP3-35" value="" style="edgeStyle=orthogonalEdgeStyle;rounded=0;orthogonalLoop=1;jettySize=auto;html=1;" edge="1" parent="1" source="LzoUuZFargR1hE_XarP3-36" target="LzoUuZFargR1hE_XarP3-41">
          <mxGeometry relative="1" as="geometry" />
        </mxCell>
        <mxCell id="LzoUuZFargR1hE_XarP3-36" value="int a=1,b=1" style="shape=hexagon;perimeter=hexagonPerimeter2;whiteSpace=wrap;html=1;fixedSize=1;" vertex="1" parent="1">
          <mxGeometry x="1150" y="150" width="120" height="80" as="geometry" />
        </mxCell>
        <mxCell id="LzoUuZFargR1hE_XarP3-37" value="" style="edgeStyle=orthogonalEdgeStyle;rounded=0;orthogonalLoop=1;jettySize=auto;html=1;" edge="1" parent="1" source="LzoUuZFargR1hE_XarP3-41" target="LzoUuZFargR1hE_XarP3-43">
          <mxGeometry relative="1" as="geometry" />
        </mxCell>
        <mxCell id="LzoUuZFargR1hE_XarP3-38" value="TRUE" style="edgeLabel;html=1;align=center;verticalAlign=middle;resizable=0;points=[];" vertex="1" connectable="0" parent="LzoUuZFargR1hE_XarP3-37">
          <mxGeometry x="-0.1534" relative="1" as="geometry">
            <mxPoint as="offset" />
          </mxGeometry>
        </mxCell>
        <mxCell id="LzoUuZFargR1hE_XarP3-39" style="edgeStyle=orthogonalEdgeStyle;rounded=0;orthogonalLoop=1;jettySize=auto;html=1;entryX=0.5;entryY=0;entryDx=0;entryDy=0;" edge="1" parent="1" source="LzoUuZFargR1hE_XarP3-41" target="LzoUuZFargR1hE_XarP3-51">
          <mxGeometry relative="1" as="geometry" />
        </mxCell>
        <mxCell id="LzoUuZFargR1hE_XarP3-40" value="FALSE" style="edgeLabel;html=1;align=center;verticalAlign=middle;resizable=0;points=[];" vertex="1" connectable="0" parent="LzoUuZFargR1hE_XarP3-39">
          <mxGeometry x="-0.6649" relative="1" as="geometry">
            <mxPoint as="offset" />
          </mxGeometry>
        </mxCell>
        <mxCell id="LzoUuZFargR1hE_XarP3-41" value="a&amp;lt;6" style="rhombus;whiteSpace=wrap;html=1;" vertex="1" parent="1">
          <mxGeometry x="1170" y="280" width="80" height="80" as="geometry" />
        </mxCell>
        <mxCell id="LzoUuZFargR1hE_XarP3-42" value="" style="edgeStyle=orthogonalEdgeStyle;rounded=0;orthogonalLoop=1;jettySize=auto;html=1;" edge="1" parent="1" source="LzoUuZFargR1hE_XarP3-43" target="LzoUuZFargR1hE_XarP3-48">
          <mxGeometry relative="1" as="geometry" />
        </mxCell>
        <mxCell id="LzoUuZFargR1hE_XarP3-43" value="loyang ke %d" style="shape=parallelogram;perimeter=parallelogramPerimeter;whiteSpace=wrap;html=1;fixedSize=1;" vertex="1" parent="1">
          <mxGeometry x="1150" y="400" width="120" height="60" as="geometry" />
        </mxCell>
        <mxCell id="LzoUuZFargR1hE_XarP3-44" value="" style="edgeStyle=orthogonalEdgeStyle;rounded=0;orthogonalLoop=1;jettySize=auto;html=1;" edge="1" parent="1" source="LzoUuZFargR1hE_XarP3-48" target="LzoUuZFargR1hE_XarP3-50">
          <mxGeometry relative="1" as="geometry" />
        </mxCell>
        <mxCell id="LzoUuZFargR1hE_XarP3-45" value="TRUE" style="edgeLabel;html=1;align=center;verticalAlign=middle;resizable=0;points=[];" vertex="1" connectable="0" parent="LzoUuZFargR1hE_XarP3-44">
          <mxGeometry x="-0.119" relative="1" as="geometry">
            <mxPoint as="offset" />
          </mxGeometry>
        </mxCell>
        <mxCell id="LzoUuZFargR1hE_XarP3-46" style="edgeStyle=orthogonalEdgeStyle;rounded=0;orthogonalLoop=1;jettySize=auto;html=1;" edge="1" parent="1" source="LzoUuZFargR1hE_XarP3-48" target="LzoUuZFargR1hE_XarP3-55">
          <mxGeometry relative="1" as="geometry" />
        </mxCell>
        <mxCell id="LzoUuZFargR1hE_XarP3-47" value="FALSE" style="edgeLabel;html=1;align=center;verticalAlign=middle;resizable=0;points=[];" vertex="1" connectable="0" parent="LzoUuZFargR1hE_XarP3-46">
          <mxGeometry x="-0.432" relative="1" as="geometry">
            <mxPoint as="offset" />
          </mxGeometry>
        </mxCell>
        <mxCell id="LzoUuZFargR1hE_XarP3-48" value="b&amp;lt;6" style="rhombus;whiteSpace=wrap;html=1;" vertex="1" parent="1">
          <mxGeometry x="1170" y="500" width="80" height="80" as="geometry" />
        </mxCell>
        <mxCell id="LzoUuZFargR1hE_XarP3-49" value="" style="edgeStyle=orthogonalEdgeStyle;rounded=0;orthogonalLoop=1;jettySize=auto;html=1;" edge="1" parent="1" source="LzoUuZFargR1hE_XarP3-50" target="LzoUuZFargR1hE_XarP3-53">
          <mxGeometry relative="1" as="geometry" />
        </mxCell>
        <mxCell id="LzoUuZFargR1hE_XarP3-50" value="*\t0\t#\tX\n" style="shape=parallelogram;perimeter=parallelogramPerimeter;whiteSpace=wrap;html=1;fixedSize=1;" vertex="1" parent="1">
          <mxGeometry x="1150" y="620" width="120" height="60" as="geometry" />
        </mxCell>
        <mxCell id="LzoUuZFargR1hE_XarP3-51" value="end" style="ellipse;whiteSpace=wrap;html=1;" vertex="1" parent="1">
          <mxGeometry x="970" y="660" width="120" height="80" as="geometry" />
        </mxCell>
        <mxCell id="LzoUuZFargR1hE_XarP3-52" style="edgeStyle=orthogonalEdgeStyle;rounded=0;orthogonalLoop=1;jettySize=auto;html=1;entryX=0;entryY=0.5;entryDx=0;entryDy=0;" edge="1" parent="1" source="LzoUuZFargR1hE_XarP3-53" target="LzoUuZFargR1hE_XarP3-48">
          <mxGeometry relative="1" as="geometry">
            <Array as="points">
              <mxPoint x="1130" y="735" />
              <mxPoint x="1130" y="540" />
            </Array>
          </mxGeometry>
        </mxCell>
        <mxCell id="LzoUuZFargR1hE_XarP3-53" value="b++" style="rounded=0;whiteSpace=wrap;html=1;" vertex="1" parent="1">
          <mxGeometry x="1180" y="720" width="60" height="30" as="geometry" />
        </mxCell>
        <mxCell id="LzoUuZFargR1hE_XarP3-54" style="edgeStyle=orthogonalEdgeStyle;rounded=0;orthogonalLoop=1;jettySize=auto;html=1;entryX=1;entryY=0.5;entryDx=0;entryDy=0;" edge="1" parent="1" source="LzoUuZFargR1hE_XarP3-55" target="LzoUuZFargR1hE_XarP3-41">
          <mxGeometry relative="1" as="geometry">
            <Array as="points">
              <mxPoint x="1405" y="320" />
            </Array>
          </mxGeometry>
        </mxCell>
        <mxCell id="LzoUuZFargR1hE_XarP3-55" value="a++" style="rounded=0;whiteSpace=wrap;html=1;" vertex="1" parent="1">
          <mxGeometry x="1380" y="400" width="50" height="30" as="geometry" />
        </mxCell>
        <mxCell id="LzoUuZFargR1hE_XarP3-56" value="" style="edgeStyle=orthogonalEdgeStyle;rounded=0;orthogonalLoop=1;jettySize=auto;html=1;" edge="1" parent="1" source="LzoUuZFargR1hE_XarP3-57" target="LzoUuZFargR1hE_XarP3-59">
          <mxGeometry relative="1" as="geometry" />
        </mxCell>
        <mxCell id="LzoUuZFargR1hE_XarP3-57" value="start" style="ellipse;whiteSpace=wrap;html=1;" vertex="1" parent="1">
          <mxGeometry x="2025" y="20" width="120" height="80" as="geometry" />
        </mxCell>
        <mxCell id="LzoUuZFargR1hE_XarP3-58" value="" style="edgeStyle=orthogonalEdgeStyle;rounded=0;orthogonalLoop=1;jettySize=auto;html=1;" edge="1" parent="1" source="LzoUuZFargR1hE_XarP3-59" target="LzoUuZFargR1hE_XarP3-61">
          <mxGeometry relative="1" as="geometry" />
        </mxCell>
        <mxCell id="LzoUuZFargR1hE_XarP3-59" value="&amp;nbsp;int angka=0, genap=0, jumlah=0, max_genap=-1&lt;div&gt;float rata&lt;/div&gt;" style="shape=hexagon;perimeter=hexagonPerimeter2;whiteSpace=wrap;html=1;fixedSize=1;" vertex="1" parent="1">
          <mxGeometry x="1978" y="160" width="215" height="80" as="geometry" />
        </mxCell>
        <mxCell id="LzoUuZFargR1hE_XarP3-60" value="" style="edgeStyle=orthogonalEdgeStyle;rounded=0;orthogonalLoop=1;jettySize=auto;html=1;" edge="1" parent="1" source="LzoUuZFargR1hE_XarP3-61" target="LzoUuZFargR1hE_XarP3-63">
          <mxGeometry relative="1" as="geometry" />
        </mxCell>
        <mxCell id="LzoUuZFargR1hE_XarP3-61" value="&quot;Input angka: &quot;, angka" style="shape=parallelogram;perimeter=parallelogramPerimeter;whiteSpace=wrap;html=1;fixedSize=1;" vertex="1" parent="1">
          <mxGeometry x="1993" y="310" width="184" height="50" as="geometry" />
        </mxCell>
        <mxCell id="LzoUuZFargR1hE_XarP3-62" value="" style="edgeStyle=orthogonalEdgeStyle;rounded=0;orthogonalLoop=1;jettySize=auto;html=1;" edge="1" parent="1" source="LzoUuZFargR1hE_XarP3-63" target="LzoUuZFargR1hE_XarP3-68">
          <mxGeometry relative="1" as="geometry" />
        </mxCell>
        <mxCell id="LzoUuZFargR1hE_XarP3-63" value="&lt;div&gt;genap += angka&lt;/div&gt;&lt;div&gt;&lt;span style=&quot;background-color: initial;&quot;&gt;jumlah++&lt;/span&gt;&lt;/div&gt;" style="rounded=0;whiteSpace=wrap;html=1;" vertex="1" parent="1">
          <mxGeometry x="2028" y="430" width="114.5" height="40" as="geometry" />
        </mxCell>
        <mxCell id="LzoUuZFargR1hE_XarP3-64" style="edgeStyle=orthogonalEdgeStyle;rounded=0;orthogonalLoop=1;jettySize=auto;html=1;entryX=1;entryY=0.5;entryDx=0;entryDy=0;" edge="1" parent="1" source="LzoUuZFargR1hE_XarP3-68" target="LzoUuZFargR1hE_XarP3-73">
          <mxGeometry relative="1" as="geometry">
            <Array as="points">
              <mxPoint x="2190" y="570" />
              <mxPoint x="2190" y="850" />
            </Array>
          </mxGeometry>
        </mxCell>
        <mxCell id="LzoUuZFargR1hE_XarP3-65" value="FALSE" style="edgeLabel;html=1;align=center;verticalAlign=middle;resizable=0;points=[];" vertex="1" connectable="0" parent="LzoUuZFargR1hE_XarP3-64">
          <mxGeometry x="-0.8613" y="2" relative="1" as="geometry">
            <mxPoint as="offset" />
          </mxGeometry>
        </mxCell>
        <mxCell id="LzoUuZFargR1hE_XarP3-66" value="" style="edgeStyle=orthogonalEdgeStyle;rounded=0;orthogonalLoop=1;jettySize=auto;html=1;" edge="1" parent="1" source="LzoUuZFargR1hE_XarP3-68" target="LzoUuZFargR1hE_XarP3-70">
          <mxGeometry relative="1" as="geometry" />
        </mxCell>
        <mxCell id="LzoUuZFargR1hE_XarP3-67" value="TRUE" style="edgeLabel;html=1;align=center;verticalAlign=middle;resizable=0;points=[];" vertex="1" connectable="0" parent="LzoUuZFargR1hE_XarP3-66">
          <mxGeometry x="-0.0985" y="1" relative="1" as="geometry">
            <mxPoint as="offset" />
          </mxGeometry>
        </mxCell>
        <mxCell id="LzoUuZFargR1hE_XarP3-68" value="angka &amp;gt; max_genap" style="rhombus;whiteSpace=wrap;html=1;" vertex="1" parent="1">
          <mxGeometry x="2033" y="520" width="104.5" height="100" as="geometry" />
        </mxCell>
        <mxCell id="LzoUuZFargR1hE_XarP3-69" value="" style="edgeStyle=orthogonalEdgeStyle;rounded=0;orthogonalLoop=1;jettySize=auto;html=1;" edge="1" parent="1" source="LzoUuZFargR1hE_XarP3-70" target="LzoUuZFargR1hE_XarP3-73">
          <mxGeometry relative="1" as="geometry" />
        </mxCell>
        <mxCell id="LzoUuZFargR1hE_XarP3-70" value="max_genap = angka" style="rounded=0;whiteSpace=wrap;html=1;" vertex="1" parent="1">
          <mxGeometry x="2025" y="690" width="120" height="60" as="geometry" />
        </mxCell>
        <mxCell id="LzoUuZFargR1hE_XarP3-71" style="edgeStyle=orthogonalEdgeStyle;rounded=0;orthogonalLoop=1;jettySize=auto;html=1;entryX=0;entryY=0.5;entryDx=0;entryDy=0;" edge="1" parent="1" source="LzoUuZFargR1hE_XarP3-73" target="LzoUuZFargR1hE_XarP3-61">
          <mxGeometry relative="1" as="geometry">
            <Array as="points">
              <mxPoint x="1950" y="850" />
              <mxPoint x="1950" y="335" />
            </Array>
          </mxGeometry>
        </mxCell>
        <mxCell id="LzoUuZFargR1hE_XarP3-72" value="" style="edgeStyle=orthogonalEdgeStyle;rounded=0;orthogonalLoop=1;jettySize=auto;html=1;" edge="1" parent="1" source="LzoUuZFargR1hE_XarP3-73" target="LzoUuZFargR1hE_XarP3-75">
          <mxGeometry relative="1" as="geometry" />
        </mxCell>
        <mxCell id="LzoUuZFargR1hE_XarP3-73" value="angka % 2 == 0" style="rhombus;whiteSpace=wrap;html=1;" vertex="1" parent="1">
          <mxGeometry x="2033.5" y="800" width="104" height="100" as="geometry" />
        </mxCell>
        <mxCell id="LzoUuZFargR1hE_XarP3-74" style="edgeStyle=orthogonalEdgeStyle;rounded=0;orthogonalLoop=1;jettySize=auto;html=1;entryX=0.5;entryY=0;entryDx=0;entryDy=0;" edge="1" parent="1" source="LzoUuZFargR1hE_XarP3-75" target="LzoUuZFargR1hE_XarP3-76">
          <mxGeometry relative="1" as="geometry" />
        </mxCell>
        <mxCell id="LzoUuZFargR1hE_XarP3-75" value="rata-rata Genap:&lt;br&gt;maximum genap:&lt;br&gt;banyak bilangan:" style="shape=parallelogram;perimeter=parallelogramPerimeter;whiteSpace=wrap;html=1;fixedSize=1;" vertex="1" parent="1">
          <mxGeometry x="2002.25" y="940" width="167.5" height="50" as="geometry" />
        </mxCell>
        <mxCell id="LzoUuZFargR1hE_XarP3-76" value="end" style="ellipse;whiteSpace=wrap;html=1;" vertex="1" parent="1">
          <mxGeometry x="2026" y="1040" width="120" height="80" as="geometry" />
        </mxCell>
        <mxCell id="LzoUuZFargR1hE_XarP3-77" value="" style="edgeStyle=orthogonalEdgeStyle;rounded=0;orthogonalLoop=1;jettySize=auto;html=1;" edge="1" parent="1" source="LzoUuZFargR1hE_XarP3-78" target="LzoUuZFargR1hE_XarP3-80">
          <mxGeometry relative="1" as="geometry" />
        </mxCell>
        <mxCell id="LzoUuZFargR1hE_XarP3-78" value="start" style="ellipse;whiteSpace=wrap;html=1;" vertex="1" parent="1">
          <mxGeometry x="2635" y="20" width="120" height="80" as="geometry" />
        </mxCell>
        <mxCell id="LzoUuZFargR1hE_XarP3-79" value="" style="edgeStyle=orthogonalEdgeStyle;rounded=0;orthogonalLoop=1;jettySize=auto;html=1;" edge="1" parent="1" source="LzoUuZFargR1hE_XarP3-80" target="LzoUuZFargR1hE_XarP3-82">
          <mxGeometry relative="1" as="geometry" />
        </mxCell>
        <mxCell id="LzoUuZFargR1hE_XarP3-80" value="&amp;nbsp;int angka=0, genap=0, jumlah=0, max_genap=-1,&amp;nbsp;ArrayBilGenap[100]&lt;div&gt;float rata&lt;/div&gt;" style="shape=hexagon;perimeter=hexagonPerimeter2;whiteSpace=wrap;html=1;fixedSize=1;" vertex="1" parent="1">
          <mxGeometry x="2587.5" y="130" width="215" height="80" as="geometry" />
        </mxCell>
        <mxCell id="LzoUuZFargR1hE_XarP3-81" value="" style="edgeStyle=orthogonalEdgeStyle;rounded=0;orthogonalLoop=1;jettySize=auto;html=1;" edge="1" parent="1" source="LzoUuZFargR1hE_XarP3-82" target="LzoUuZFargR1hE_XarP3-85">
          <mxGeometry relative="1" as="geometry" />
        </mxCell>
        <mxCell id="LzoUuZFargR1hE_XarP3-82" value="&quot;Input angka: &quot;, angka" style="shape=parallelogram;perimeter=parallelogramPerimeter;whiteSpace=wrap;html=1;fixedSize=1;" vertex="1" parent="1">
          <mxGeometry x="2603" y="240" width="184" height="50" as="geometry" />
        </mxCell>
        <mxCell id="LzoUuZFargR1hE_XarP3-83" value="" style="edgeStyle=orthogonalEdgeStyle;rounded=0;orthogonalLoop=1;jettySize=auto;html=1;" edge="1" parent="1" source="LzoUuZFargR1hE_XarP3-85" target="LzoUuZFargR1hE_XarP3-87">
          <mxGeometry relative="1" as="geometry" />
        </mxCell>
        <mxCell id="LzoUuZFargR1hE_XarP3-84" value="TRUE" style="edgeLabel;html=1;align=center;verticalAlign=middle;resizable=0;points=[];" vertex="1" connectable="0" parent="LzoUuZFargR1hE_XarP3-83">
          <mxGeometry x="-0.1" relative="1" as="geometry">
            <mxPoint as="offset" />
          </mxGeometry>
        </mxCell>
        <mxCell id="LzoUuZFargR1hE_XarP3-85" value="angka % 2 == 0" style="rhombus;whiteSpace=wrap;html=1;" vertex="1" parent="1">
          <mxGeometry x="2642.5" y="330" width="105" height="100" as="geometry" />
        </mxCell>
        <mxCell id="LzoUuZFargR1hE_XarP3-86" value="" style="edgeStyle=orthogonalEdgeStyle;rounded=0;orthogonalLoop=1;jettySize=auto;html=1;" edge="1" parent="1" source="LzoUuZFargR1hE_XarP3-87" target="LzoUuZFargR1hE_XarP3-90">
          <mxGeometry relative="1" as="geometry" />
        </mxCell>
        <mxCell id="LzoUuZFargR1hE_XarP3-87" value="&lt;div&gt;ArrayBilGenap[jumlah] = angka&lt;/div&gt;&lt;div&gt;&lt;span style=&quot;background-color: initial;&quot;&gt;genap += angka&lt;/span&gt;&lt;/div&gt;&lt;div&gt;jumlah++&lt;/div&gt;" style="rounded=0;whiteSpace=wrap;html=1;" vertex="1" parent="1">
          <mxGeometry x="2617.5" y="470" width="155" height="60" as="geometry" />
        </mxCell>
        <mxCell id="LzoUuZFargR1hE_XarP3-88" value="" style="edgeStyle=orthogonalEdgeStyle;rounded=0;orthogonalLoop=1;jettySize=auto;html=1;" edge="1" parent="1" source="LzoUuZFargR1hE_XarP3-90" target="LzoUuZFargR1hE_XarP3-92">
          <mxGeometry relative="1" as="geometry" />
        </mxCell>
        <mxCell id="LzoUuZFargR1hE_XarP3-89" value="TRUE" style="edgeLabel;html=1;align=center;verticalAlign=middle;resizable=0;points=[];" vertex="1" connectable="0" parent="LzoUuZFargR1hE_XarP3-88">
          <mxGeometry x="-0.08" y="1" relative="1" as="geometry">
            <mxPoint as="offset" />
          </mxGeometry>
        </mxCell>
        <mxCell id="LzoUuZFargR1hE_XarP3-90" value="angka &amp;gt; max_genap" style="rhombus;whiteSpace=wrap;html=1;" vertex="1" parent="1">
          <mxGeometry x="2655" y="560" width="80" height="80" as="geometry" />
        </mxCell>
        <mxCell id="LzoUuZFargR1hE_XarP3-91" value="" style="edgeStyle=orthogonalEdgeStyle;rounded=0;orthogonalLoop=1;jettySize=auto;html=1;" edge="1" parent="1" source="LzoUuZFargR1hE_XarP3-92" target="LzoUuZFargR1hE_XarP3-96">
          <mxGeometry relative="1" as="geometry" />
        </mxCell>
        <mxCell id="LzoUuZFargR1hE_XarP3-92" value="max_genap = angka;" style="rounded=0;whiteSpace=wrap;html=1;" vertex="1" parent="1">
          <mxGeometry x="2628" y="690" width="134" height="40" as="geometry" />
        </mxCell>
        <mxCell id="LzoUuZFargR1hE_XarP3-93" style="edgeStyle=orthogonalEdgeStyle;rounded=0;orthogonalLoop=1;jettySize=auto;html=1;entryX=0;entryY=0.5;entryDx=0;entryDy=0;" edge="1" parent="1" source="LzoUuZFargR1hE_XarP3-96" target="LzoUuZFargR1hE_XarP3-82">
          <mxGeometry relative="1" as="geometry">
            <Array as="points">
              <mxPoint x="2550" y="820" />
              <mxPoint x="2550" y="265" />
            </Array>
          </mxGeometry>
        </mxCell>
        <mxCell id="LzoUuZFargR1hE_XarP3-94" value="" style="edgeStyle=orthogonalEdgeStyle;rounded=0;orthogonalLoop=1;jettySize=auto;html=1;" edge="1" parent="1" source="LzoUuZFargR1hE_XarP3-96" target="LzoUuZFargR1hE_XarP3-98">
          <mxGeometry relative="1" as="geometry" />
        </mxCell>
        <mxCell id="LzoUuZFargR1hE_XarP3-95" value="TRUE" style="edgeLabel;html=1;align=center;verticalAlign=middle;resizable=0;points=[];" vertex="1" connectable="0" parent="LzoUuZFargR1hE_XarP3-94">
          <mxGeometry x="-0.392" y="-2" relative="1" as="geometry">
            <mxPoint as="offset" />
          </mxGeometry>
        </mxCell>
        <mxCell id="LzoUuZFargR1hE_XarP3-96" value="angka % 2 == 0" style="rhombus;whiteSpace=wrap;html=1;" vertex="1" parent="1">
          <mxGeometry x="2647.5" y="770" width="95" height="100" as="geometry" />
        </mxCell>
        <mxCell id="LzoUuZFargR1hE_XarP3-97" value="" style="edgeStyle=orthogonalEdgeStyle;rounded=0;orthogonalLoop=1;jettySize=auto;html=1;" edge="1" parent="1" source="LzoUuZFargR1hE_XarP3-98" target="LzoUuZFargR1hE_XarP3-100">
          <mxGeometry relative="1" as="geometry" />
        </mxCell>
        <mxCell id="LzoUuZFargR1hE_XarP3-98" value="rata = (float)genap / jumlah" style="rounded=0;whiteSpace=wrap;html=1;" vertex="1" parent="1">
          <mxGeometry x="2612.5" y="940" width="165" height="30" as="geometry" />
        </mxCell>
        <mxCell id="LzoUuZFargR1hE_XarP3-99" value="" style="edgeStyle=orthogonalEdgeStyle;rounded=0;orthogonalLoop=1;jettySize=auto;html=1;" edge="1" parent="1" source="LzoUuZFargR1hE_XarP3-100" target="LzoUuZFargR1hE_XarP3-101">
          <mxGeometry relative="1" as="geometry" />
        </mxCell>
        <mxCell id="LzoUuZFargR1hE_XarP3-100" value="Rata-rata Genap:&lt;div&gt;Maximum Genap:&lt;/div&gt;&lt;div&gt;Banyak Bilangan Genap:&lt;/div&gt;" style="shape=parallelogram;perimeter=parallelogramPerimeter;whiteSpace=wrap;html=1;fixedSize=1;" vertex="1" parent="1">
          <mxGeometry x="2602" y="1000" width="185" height="60" as="geometry" />
        </mxCell>
        <mxCell id="LzoUuZFargR1hE_XarP3-101" value="end" style="ellipse;whiteSpace=wrap;html=1;" vertex="1" parent="1">
          <mxGeometry x="2635" y="1110" width="120" height="80" as="geometry" />
        </mxCell>
      </root>
    </mxGraphModel>
  </diagram>
</mxfile>
